<?xml version="1.0" standalone="no"?>
<!DOCTYPE svg PUBLIC "-//W3C//DTD SVG 20010904//EN"
 "http://www.w3.org/TR/2001/REC-SVG-20010904/DTD/svg10.dtd">
<svg version="1.0" xmlns="http://www.w3.org/2000/svg"
 width="2046.000000pt" height="2046.000000pt" viewBox="0 0 2046.000000 2046.000000"
 preserveAspectRatio="xMidYMid meet">
<metadata>
Created by potrace 1.14, written by Peter Selinger 2001-2017
</metadata>
<g transform="translate(0.000000,2046.000000) scale(0.100000,-0.100000)"
fill="#000000" stroke="none">
<path d="M4818 15775 c-1 -1 -45 -6 -97 -9 -52 -3 -101 -12 -110 -19 -12 -10
-13 -9 -6 2 6 11 4 13 -11 7 -17 -7 -94 -18 -136 -20 -10 0 -18 -3 -18 -7 0
-4 -13 -5 -30 -4 -16 1 -30 -1 -30 -5 0 -7 -100 -25 -127 -23 -7 0 -13 -3 -13
-8 0 -5 -3 -8 -7 -7 -20 4 -273 -73 -273 -83 0 -5 -7 -6 -15 -3 -8 4 -26 -1
-40 -10 -13 -9 -32 -17 -42 -19 -10 -2 -33 -11 -51 -20 -18 -10 -37 -15 -41
-12 -5 3 -11 2 -13 -3 -2 -7 -91 -53 -108 -57 -17 -4 -156 -79 -158 -86 -2 -5
-10 -9 -17 -9 -8 0 -42 -18 -77 -40 -35 -22 -66 -40 -70 -40 -4 -1 -20 -12
-34 -25 -15 -14 -33 -25 -40 -25 -8 0 -14 -4 -14 -10 0 -5 -5 -10 -11 -10 -6
0 -16 -6 -23 -12 -8 -7 -24 -20 -36 -28 -12 -8 -28 -19 -34 -25 -6 -5 -38 -30
-70 -55 -33 -25 -74 -60 -93 -77 -18 -18 -36 -33 -40 -33 -9 0 -239 -235 -297
-303 -28 -32 -80 -99 -118 -150 -37 -51 -71 -96 -76 -102 -21 -28 -112 -177
-112 -184 0 -5 -3 -11 -7 -13 -13 -5 -148 -267 -145 -280 1 -5 -3 -8 -9 -8 -5
0 -7 -4 -4 -10 3 -5 2 -10 -4 -10 -6 0 -8 -7 -5 -15 4 -8 2 -15 -4 -15 -5 0
-13 -12 -18 -27 -4 -16 -8 -30 -9 -33 -1 -3 -9 -23 -18 -44 -10 -22 -25 -62
-35 -90 -9 -28 -19 -53 -22 -56 -3 -3 -6 -12 -7 -20 -1 -8 -13 -53 -28 -100
-14 -47 -27 -94 -30 -105 -2 -11 -6 -29 -9 -40 -27 -111 -54 -248 -61 -315 -2
-14 -4 -25 -5 -25 -3 0 -8 -45 -14 -135 -9 -115 -12 -140 -20 -147 -3 -3 -2
-11 4 -17 5 -7 5 -27 1 -49 -5 -21 -5 -35 0 -31 5 3 5 -5 1 -18 -9 -26 -8 -60
2 -77 4 -6 3 -11 -1 -11 -15 0 -2 -241 22 -415 3 -22 7 -51 9 -65 2 -14 7 -38
11 -54 4 -16 9 -36 9 -45 5 -46 40 -181 48 -181 5 0 7 -4 3 -10 -3 -5 1 -25 9
-44 8 -19 12 -37 8 -40 -3 -3 0 -6 7 -6 7 0 10 -4 6 -10 -3 -5 -1 -17 4 -27
23 -45 39 -88 35 -95 -3 -4 0 -8 5 -8 6 0 11 -5 11 -11 0 -17 81 -184 91 -187
5 -2 9 -10 9 -18 0 -8 22 -49 50 -91 27 -42 50 -77 50 -79 0 -4 28 -38 48 -59
6 -8 12 -16 12 -19 0 -7 35 -50 72 -89 16 -16 28 -31 28 -33 0 -15 241 -234
258 -234 6 0 12 -4 12 -9 0 -4 19 -21 43 -37 23 -16 48 -35 55 -41 7 -7 17
-13 22 -13 5 0 35 -17 67 -38 75 -50 335 -176 378 -184 11 -1 22 -5 25 -8 5
-5 127 -48 159 -55 9 -3 34 -9 56 -15 70 -19 119 -31 160 -37 22 -3 42 -8 45
-12 3 -3 14 -6 25 -6 11 1 36 -3 57 -7 20 -4 60 -10 90 -14 29 -3 67 -8 83
-10 123 -17 551 -25 675 -12 75 7 89 8 113 8 16 -1 103 8 147 15 19 4 49 8 65
10 17 3 41 7 55 10 14 3 52 10 84 16 33 5 62 12 66 14 4 2 20 6 36 9 16 3 79
19 139 37 61 17 118 32 129 34 10 3 24 9 32 16 8 6 14 9 14 5 0 -3 17 1 38 10
20 8 44 17 52 19 22 5 180 72 213 91 15 8 27 12 27 9 0 -4 12 3 26 14 15 11
30 19 34 16 4 -3 13 2 20 10 7 8 16 15 21 15 13 0 216 124 229 140 3 3 30 22
60 42 30 20 65 46 77 57 12 12 26 21 31 21 5 0 15 7 22 15 7 9 39 35 70 58
l57 44 -28 41 c-16 23 -25 42 -21 42 4 0 2 4 -5 8 -6 4 -35 43 -63 86 -28 43
-58 85 -65 93 -8 7 -17 22 -20 33 -3 11 -11 20 -16 20 -6 0 -7 5 -4 10 3 6 3
10 -2 10 -4 0 -21 21 -38 48 -16 26 -32 49 -35 52 -4 3 -17 24 -30 48 -13 23
-27 42 -32 42 -4 0 -8 4 -8 9 0 10 -76 126 -97 148 -6 7 -15 22 -18 33 -3 11
-11 20 -16 20 -6 0 -8 4 -5 9 4 5 3 11 -2 13 -10 4 -82 106 -82 116 0 5 -8 17
-18 28 -26 29 -142 204 -142 215 0 5 -4 9 -9 9 -5 0 -12 8 -15 18 -3 9 -17 30
-31 46 -14 16 -25 35 -25 43 0 21 -26 15 -58 -14 -60 -54 -84 -73 -92 -73 -5
0 -10 -4 -12 -9 -4 -12 -124 -91 -138 -91 -6 0 -13 -7 -16 -15 -4 -8 -10 -13
-14 -10 -5 3 -15 -1 -23 -9 -8 -8 -26 -18 -41 -22 -14 -3 -26 -10 -26 -15 0
-5 -9 -9 -20 -9 -11 0 -20 -4 -20 -10 0 -5 -3 -9 -7 -8 -5 1 -21 -4 -36 -10
-16 -7 -33 -12 -38 -12 -5 0 -9 -5 -9 -11 0 -5 -4 -8 -8 -5 -5 3 -37 -4 -73
-15 -65 -21 -85 -25 -174 -37 -65 -8 -297 -8 -355 1 -78 12 -105 17 -120 24
-8 3 -19 7 -25 7 -10 1 -77 23 -105 33 -8 4 -17 7 -20 8 -49 12 -187 109 -242
170 -69 74 -88 96 -88 99 0 2 -18 34 -40 70 -22 36 -40 68 -40 71 0 3 -7 22
-16 43 -10 20 -19 48 -21 62 -2 13 -9 30 -15 37 -6 7 -8 13 -5 13 3 0 1 17 -5
38 -5 20 -11 51 -14 67 -7 40 -11 327 -5 340 3 5 6 23 7 40 3 39 12 99 25 155
5 25 10 48 10 52 0 4 7 27 15 50 9 24 18 54 20 67 3 13 14 42 24 64 11 22 17
44 14 48 -3 5 -1 9 4 9 9 0 26 48 22 59 -1 2 3 7 8 10 5 3 20 26 32 51 44 87
139 216 216 295 90 92 139 135 154 135 5 0 10 5 10 10 0 6 7 10 15 10 8 0 15
4 15 8 0 11 56 43 64 35 3 -3 6 -1 6 5 0 6 28 24 63 41 80 37 137 61 137 56 0
-2 12 2 27 10 15 8 30 12 35 9 4 -3 14 -2 21 3 12 7 19 9 67 18 83 14 124 17
219 17 133 1 201 -3 206 -12 2 -4 14 -6 27 -5 13 1 26 -3 30 -9 5 -7 8 -7 8 2
0 8 5 10 13 5 6 -4 15 -8 20 -9 4 -1 8 -2 10 -4 1 -1 11 -3 22 -5 41 -7 55
-11 61 -18 4 -4 15 -7 24 -7 23 0 155 -61 203 -94 21 -14 42 -26 48 -26 6 0 7
-4 4 -10 -3 -5 1 -10 9 -10 9 0 21 -9 28 -20 7 -11 16 -20 20 -20 8 0 58 -48
58 -56 0 -2 14 -20 31 -39 l32 -35 94 98 c52 53 187 193 301 310 114 117 209
217 210 223 2 5 10 9 18 9 8 0 14 5 14 10 0 6 42 53 93 104 50 51 113 116 140
144 26 28 47 49 47 46 0 -3 12 9 28 27 15 18 73 80 130 138 56 58 102 112 102
121 0 15 -118 130 -185 182 -16 12 -32 25 -35 28 -9 11 -185 125 -222 145 -21
11 -38 23 -38 27 0 4 -6 5 -14 2 -7 -3 -16 2 -19 10 -4 9 -16 16 -27 16 -11 0
-20 5 -20 12 0 6 -3 9 -6 5 -3 -3 -32 8 -64 24 -31 16 -63 29 -69 29 -6 0 -11
5 -11 11 0 5 -4 8 -9 4 -5 -3 -17 2 -25 11 -9 8 -16 13 -16 10 0 -3 -24 4 -52
15 -29 11 -87 32 -128 46 -41 13 -82 27 -90 30 -8 4 -19 7 -25 7 -45 6 -95 19
-95 25 0 4 -12 7 -27 8 -16 0 -39 3 -53 7 -24 6 -49 11 -100 22 -14 2 -44 6
-66 8 -23 2 -46 6 -51 9 -5 3 -41 9 -79 12 -39 3 -86 8 -105 11 -36 6 -555 14
-561 9z"/>
<path d="M7738 15632 c-24 -2 -38 -8 -39 -18 -1 -8 -2 -17 -3 -21 -1 -5 -6
-30 -11 -58 -4 -27 -9 -54 -11 -60 -1 -5 -5 -28 -8 -50 -4 -22 -13 -76 -21
-120 -8 -44 -16 -93 -19 -110 -2 -16 -5 -30 -6 -30 -3 0 -11 -60 -13 -87 0
-16 -4 -28 -8 -28 -4 0 -6 -13 -5 -30 1 -16 -1 -30 -5 -30 -3 0 -5 -10 -5 -22
1 -13 0 -27 -3 -33 -6 -11 -8 -20 -15 -80 -3 -22 -8 -51 -11 -65 -3 -14 -7
-35 -9 -47 -3 -11 -8 -42 -11 -67 -4 -25 -10 -46 -14 -46 -3 0 -6 -17 -6 -37
-1 -21 -5 -58 -9 -83 -5 -25 -10 -54 -12 -65 -1 -11 -3 -20 -4 -20 -2 0 -8
-30 -14 -75 -2 -19 -8 -48 -11 -65 -4 -16 -6 -40 -6 -52 0 -13 -3 -23 -7 -23
-4 0 -8 -12 -8 -27 -1 -16 -5 -48 -10 -73 -4 -25 -8 -56 -8 -70 -1 -14 -4 -27
-7 -30 -4 -3 -9 -25 -12 -50 -3 -25 -15 -92 -27 -150 -11 -58 -21 -112 -22
-120 0 -14 -20 -128 -33 -195 -11 -54 -17 -100 -17 -122 0 -13 -3 -23 -7 -23
-4 0 -7 -10 -8 -22 -1 -20 -4 -45 -18 -117 -1 -9 -6 -36 -10 -61 -4 -25 -9
-54 -11 -65 -3 -11 -7 -36 -10 -55 -3 -19 -7 -42 -9 -50 -2 -8 -6 -28 -9 -45
-11 -66 -17 -101 -23 -130 -3 -16 -6 -40 -6 -52 -1 -13 -4 -23 -7 -23 -4 0 -6
-10 -5 -22 1 -13 0 -27 -4 -33 -3 -5 -7 -21 -8 -35 0 -14 -4 -43 -8 -65 -4
-22 -7 -46 -8 -52 0 -7 -3 -13 -6 -13 -3 0 -6 -17 -6 -38 0 -20 -3 -42 -7 -48
-5 -6 -11 -31 -13 -55 -3 -24 -11 -78 -19 -119 -18 -94 -25 -138 -31 -172 -2
-15 -9 -55 -15 -90 -7 -35 -14 -72 -15 -83 -2 -11 -6 -33 -9 -50 -3 -16 -7
-40 -9 -52 -2 -12 -6 -26 -10 -29 -11 -12 -8 -26 4 -18 8 4 8 1 1 -12 -5 -11
-13 -37 -16 -59 -7 -40 -12 -73 -20 -110 -2 -11 -7 -40 -11 -65 -4 -25 -9 -54
-11 -65 -3 -11 -7 -36 -10 -55 -3 -19 -7 -42 -9 -50 -3 -8 -7 -35 -10 -60 -3
-25 -8 -54 -12 -65 -8 -24 -13 -60 -14 -97 -1 -16 -4 -28 -8 -28 -4 0 -8 -17
-9 -37 -2 -37 -8 -78 -12 -78 -1 0 -4 -13 -5 -30 -2 -16 -6 -41 -9 -55 -3 -13
-9 -42 -12 -65 -4 -22 -8 -51 -11 -65 -2 -14 -5 -38 -6 -55 -1 -16 -5 -32 -8
-35 -4 -3 -9 -27 -13 -55 -4 -27 -10 -69 -15 -92 -5 -24 -6 -43 -3 -43 2 0 0
-6 -5 -12 -6 -7 -9 -21 -8 -30 2 -10 -1 -18 -6 -18 -6 0 -7 -4 -4 -10 3 -5 1
-29 -6 -52 -12 -42 -21 -96 -22 -130 -1 -10 -4 -18 -8 -18 -4 0 -7 -10 -7 -22
0 -26 -18 -153 -22 -153 -3 0 -9 -38 -16 -90 -4 -27 -8 -53 -11 -57 -3 -6 -36
-185 -47 -263 -14 -87 -23 -140 -26 -140 -1 0 -3 -13 -5 -30 -1 -16 -3 -30 -5
-30 -1 0 -3 -11 -5 -25 -5 -35 -12 -79 -20 -120 -4 -19 -8 -44 -9 -55 -1 -11
-5 -29 -8 -40 -4 -11 -9 -42 -13 -68 -3 -26 -10 -71 -16 -100 -6 -29 -12 -63
-14 -77 -2 -14 -7 -36 -9 -50 -3 -13 -8 -40 -11 -60 -3 -20 -8 -47 -11 -60 -8
-37 -17 -102 -18 -127 -1 -13 -3 -23 -6 -23 -5 0 -8 -24 -12 -87 -1 -13 -5
-23 -9 -23 -3 0 -7 -10 -7 -22 0 -13 -5 -48 -11 -78 -6 -30 -13 -71 -15 -90
-3 -19 -12 -71 -20 -115 -9 -44 -19 -100 -22 -124 -3 -25 -8 -49 -11 -54 -3
-6 -7 -26 -9 -46 -1 -20 -5 -52 -9 -71 -4 -19 -8 -41 -8 -47 0 -7 -3 -13 -7
-13 -3 0 -5 -15 -5 -32 1 -18 -1 -37 -4 -43 -3 -5 -6 -17 -8 -25 -1 -8 -5 -35
-9 -60 -4 -25 -8 -56 -8 -70 -1 -14 -3 -27 -6 -30 -5 -4 -28 -130 -46 -240 -3
-22 -12 -74 -29 -160 -2 -14 -7 -41 -10 -60 -6 -42 -13 -75 -15 -75 -1 0 -4
-13 -6 -30 -8 -67 -12 -100 -14 -100 -3 0 -10 -38 -14 -80 -3 -22 -6 -40 -7
-40 -1 0 -3 -9 -4 -20 -3 -18 -6 -35 -19 -100 -2 -11 -7 -42 -10 -69 -4 -27
-9 -52 -11 -56 -2 -3 -6 -24 -9 -46 -3 -21 -7 -49 -10 -60 -2 -12 -7 -39 -10
-60 -9 -56 -22 -122 -25 -126 -1 -2 -4 -21 -6 -43 -2 -22 -7 -51 -10 -65 -7
-25 -14 -71 -20 -125 -2 -16 -4 -30 -5 -30 -3 0 -18 -78 -25 -125 -3 -19 -7
-46 -10 -60 -3 -14 -8 -38 -10 -55 -3 -16 -12 -66 -21 -110 -8 -45 -16 -94
-19 -110 -2 -17 -6 -41 -10 -55 -3 -14 -8 -45 -11 -70 -3 -25 -7 -53 -10 -62
-6 -20 -10 -43 -18 -92 -3 -20 -9 -52 -12 -72 -3 -20 -8 -46 -11 -58 -5 -22
-7 -33 -17 -101 -4 -23 -9 -51 -11 -63 -3 -12 -7 -30 -9 -40 -3 -17 -17 -100
-22 -137 -2 -11 -5 -33 -8 -50 -3 -16 -7 -39 -9 -50 -1 -11 -5 -24 -8 -30 -21
-39 -77 -37 1721 -37 949 0 1735 1 1746 1 17 1 23 10 29 44 4 23 9 47 10 52 7
28 17 93 18 113 1 12 4 22 7 22 3 0 5 12 4 28 -1 15 1 31 4 37 3 5 7 16 8 25
2 8 5 31 8 50 3 19 7 46 10 60 3 13 8 40 11 60 3 20 8 47 10 60 11 56 48 258
60 335 3 17 7 41 10 55 3 14 7 43 10 65 7 50 13 80 15 80 1 0 3 11 5 25 3 28
12 79 22 125 3 17 7 39 9 50 6 43 16 102 24 138 5 26 4 37 -4 38 -6 0 -401 1
-878 1 -803 1 -868 2 -868 18 0 16 22 141 190 1085 38 215 144 811 235 1325
91 514 192 1084 225 1265 32 182 115 647 184 1035 584 3289 800 4507 830 4670
13 69 20 129 16 133 -7 8 -1608 16 -1692 9z"/>
<path d="M10538 15632 l-118 -3 -6 -27 c-3 -15 -8 -38 -11 -52 -2 -14 -7 -38
-9 -55 -2 -16 -8 -52 -14 -80 -5 -27 -12 -63 -14 -80 -2 -16 -6 -46 -10 -65
-3 -19 -8 -46 -10 -60 -3 -14 -7 -35 -10 -46 -6 -30 -17 -93 -22 -129 -2 -16
-6 -41 -9 -55 -4 -14 -8 -34 -10 -45 -2 -11 -6 -40 -10 -65 -4 -25 -9 -54 -11
-65 -1 -11 -6 -31 -9 -45 -3 -14 -8 -41 -11 -60 -2 -19 -6 -46 -9 -60 -9 -44
-13 -66 -19 -106 -4 -22 -11 -61 -16 -89 -15 -79 -22 -118 -25 -145 -2 -14 -4
-25 -5 -25 -2 0 -4 -9 -5 -20 -10 -69 -14 -90 -15 -90 -1 0 -3 -13 -6 -30 -3
-29 -10 -65 -14 -75 -1 -3 -2 -8 -1 -13 1 -4 -5 -40 -13 -80 -21 -106 -58
-319 -60 -344 0 -13 -3 -23 -6 -23 -3 0 -6 -10 -7 -22 -2 -29 -15 -110 -29
-178 -4 -19 -7 -47 -8 -62 0 -16 -3 -28 -6 -28 -5 0 -8 -23 -13 -92 -1 -16 -5
-28 -8 -28 -4 0 -7 -10 -7 -22 0 -13 -12 -84 -25 -158 -23 -123 -35 -189 -43
-245 -1 -11 -3 -20 -4 -20 -1 0 -3 -11 -5 -25 -4 -32 -13 -79 -20 -110 -3 -14
-7 -41 -10 -60 -3 -19 -9 -57 -14 -85 -6 -27 -12 -63 -15 -80 -3 -16 -8 -42
-11 -57 -3 -16 -7 -40 -9 -55 -4 -24 -21 -112 -25 -128 0 -3 -1 -6 -2 -7 0 -2
-2 -19 -4 -38 -3 -19 -7 -46 -10 -60 -7 -32 -18 -101 -18 -117 0 -7 -3 -13 -7
-13 -3 0 -5 -16 -5 -35 1 -20 -2 -38 -6 -40 -4 -3 -6 -16 -4 -30 1 -14 -1 -25
-4 -25 -4 0 -7 -10 -8 -22 -1 -26 -7 -61 -28 -173 -9 -44 -18 -98 -21 -120 -2
-22 -7 -46 -9 -53 -3 -8 -8 -37 -11 -65 -4 -29 -9 -54 -13 -57 -3 -3 -7 -18
-8 -35 -1 -16 -4 -46 -8 -65 -3 -19 -8 -46 -11 -60 -2 -14 -7 -43 -10 -65 -4
-22 -10 -48 -15 -57 -7 -12 -6 -18 1 -18 7 0 8 -6 0 -19 -5 -11 -11 -36 -12
-55 -2 -20 -5 -36 -8 -36 -3 0 -6 -8 -6 -17 -1 -18 -10 -80 -18 -118 -2 -11
-7 -40 -11 -65 -8 -51 -12 -74 -20 -110 -2 -14 -7 -40 -10 -57 -5 -36 -14 -88
-18 -106 -1 -9 206 -13 831 -15 457 -1 833 1 833 5 1 5 3 22 4 38 2 17 4 30 5
30 1 0 4 12 6 28 2 15 6 39 8 55 2 15 5 27 6 27 1 0 3 16 5 35 4 39 12 92 20
130 3 14 8 48 11 75 4 28 12 81 19 120 8 38 11 73 9 77 -3 4 -2 8 3 8 4 0 8
15 9 33 0 17 4 52 8 77 4 25 10 60 12 79 3 18 8 43 10 55 2 11 6 39 9 61 7 47
13 80 15 80 1 0 3 18 6 40 5 51 12 100 14 100 2 0 6 24 14 90 3 22 7 49 9 60
3 11 12 67 21 125 19 126 24 155 26 155 1 0 3 16 4 35 5 62 18 134 28 154 8
14 7 17 -3 11 -8 -5 -10 -4 -5 4 4 6 9 21 11 34 12 73 17 105 21 132 2 17 6
46 10 65 3 19 7 50 8 68 0 17 4 32 8 32 4 0 6 16 4 35 -1 19 2 35 6 35 5 0 8
6 7 13 -2 9 9 96 16 127 1 3 5 32 9 65 4 32 10 68 12 80 5 24 16 96 17 110 0
6 9 12 19 12 13 1 20 -7 25 -28 3 -16 9 -29 14 -29 5 0 8 -3 7 -7 -2 -7 22
-75 53 -148 7 -16 13 -32 14 -35 0 -3 6 -15 13 -27 7 -13 10 -23 7 -23 -3 0 2
-11 11 -24 8 -14 15 -27 15 -31 -1 -3 6 -21 14 -41 8 -20 15 -40 15 -45 0 -5
4 -17 9 -27 12 -23 36 -78 55 -127 9 -22 21 -53 27 -70 7 -16 13 -32 14 -35 1
-3 7 -18 14 -35 6 -16 23 -59 37 -95 14 -36 30 -73 36 -84 5 -10 11 -27 13
-37 2 -10 11 -35 20 -56 10 -21 21 -47 25 -58 4 -11 17 -41 29 -67 12 -26 21
-51 21 -56 0 -5 9 -27 20 -50 11 -22 20 -47 20 -55 0 -7 5 -18 12 -25 7 -7 9
-12 4 -12 -4 0 -1 -12 7 -27 24 -47 38 -78 41 -93 1 -8 12 -35 23 -60 11 -25
30 -72 42 -105 13 -33 29 -73 36 -90 20 -44 142 -356 150 -382 3 -13 11 -23
16 -23 6 0 8 -4 5 -8 -3 -5 1 -20 9 -35 8 -15 11 -27 8 -27 -3 0 2 -11 11 -25
9 -14 14 -25 11 -25 -4 0 0 -12 8 -27 22 -41 67 -153 62 -153 -3 0 4 -16 15
-35 11 -20 20 -39 20 -44 0 -5 8 -26 17 -47 9 -22 17 -43 17 -49 1 -7 299 -11
870 -12 765 -2 867 -1 862 12 -3 8 -2 15 2 15 4 0 14 39 21 88 7 48 15 96 17
107 3 11 7 35 10 54 3 18 8 43 11 55 3 11 6 32 8 46 1 14 3 25 5 25 2 0 8 38
13 90 2 17 6 36 10 42 4 6 4 18 1 27 -3 9 -2 16 4 16 5 0 10 12 10 28 1 28 9
87 12 87 2 0 8 34 14 80 2 22 5 40 6 40 2 0 9 37 16 85 3 25 9 61 14 80 9 34
23 123 23 148 0 6 3 12 6 12 3 0 6 10 7 23 0 23 9 82 19 127 5 24 12 66 21
120 2 14 6 36 8 50 3 14 7 36 10 50 2 14 7 39 10 55 4 17 9 46 12 65 3 19 13
82 24 140 10 58 21 123 25 145 4 22 9 51 12 65 3 14 6 34 8 45 1 11 5 36 8 55
10 50 18 91 23 120 3 14 7 39 8 55 2 17 4 30 6 30 1 0 3 11 5 25 2 14 6 35 8
47 3 11 9 43 13 70 9 61 12 81 18 101 3 9 7 33 10 52 3 19 8 46 10 60 22 129
29 177 27 188 -1 6 2 12 6 12 4 0 9 15 10 33 2 30 10 72 13 72 1 0 3 18 6 40
6 61 11 89 18 105 3 8 7 36 9 63 1 26 4 47 7 47 3 0 6 8 7 18 1 10 7 47 13 83
7 35 13 73 15 84 1 11 7 45 13 75 11 54 18 93 27 155 3 17 8 44 11 60 4 17 8
41 10 55 2 14 5 39 8 55 3 17 8 41 10 55 3 14 5 25 6 25 1 0 3 11 5 25 7 55
15 102 25 145 6 25 10 48 9 52 -1 5 -1 10 1 13 1 3 3 16 6 30 4 25 28 159 39
215 5 26 14 81 18 110 1 6 7 13 12 17 6 5 5 8 -4 8 -9 0 -10 4 -4 13 6 6 9 22
8 35 -1 13 2 25 7 28 4 3 6 10 2 15 -3 5 -2 15 3 22 5 7 9 27 9 45 -1 17 2 32
5 32 3 0 6 6 6 13 0 6 4 35 8 62 4 28 9 59 10 70 2 11 4 21 5 23 2 1 4 11 5
22 1 11 3 21 5 23 2 2 6 25 14 82 12 89 44 253 50 264 5 8 -13 11 -61 11 -82
1 -1523 1 -1573 0 -38 0 -40 -5 -44 -87 -1 -13 -3 -23 -6 -23 -4 0 -6 -10 -7
-22 0 -21 -7 -70 -19 -143 -3 -16 -7 -43 -9 -58 -2 -16 -6 -40 -9 -55 -3 -15
-8 -43 -10 -62 -3 -19 -7 -44 -10 -55 -2 -11 -7 -47 -11 -80 -3 -32 -8 -62
-10 -65 -2 -4 -7 -29 -10 -56 -3 -27 -9 -62 -12 -79 -4 -16 -7 -37 -8 -45 0
-8 -4 -21 -8 -27 -5 -8 -4 -13 3 -13 7 0 8 -6 1 -19 -6 -10 -12 -36 -14 -58
-1 -21 -6 -43 -9 -49 -4 -5 -5 -19 -4 -30 2 -10 -1 -25 -7 -31 -6 -9 -5 -13 4
-13 9 0 10 -3 3 -8 -6 -4 -11 -14 -11 -22 -1 -8 -4 -33 -8 -55 -4 -22 -8 -53
-10 -70 -1 -16 -5 -37 -8 -45 -3 -8 -8 -37 -12 -65 -3 -27 -7 -59 -9 -70 -2
-11 -7 -42 -11 -70 -4 -27 -9 -59 -12 -70 -2 -11 -6 -38 -9 -60 -3 -22 -10
-67 -15 -100 -12 -68 -18 -107 -21 -147 -1 -16 -5 -28 -9 -28 -3 0 -5 -18 -5
-40 1 -22 -2 -40 -5 -40 -4 0 -6 -8 -4 -17 1 -10 0 -22 -3 -28 -3 -5 -7 -25
-8 -45 -1 -19 -3 -35 -4 -35 -3 0 -10 -39 -14 -85 -3 -25 -5 -45 -6 -45 -3 0
-12 -59 -26 -160 -2 -16 -6 -41 -9 -55 -3 -14 -8 -45 -11 -70 -7 -54 -12 -85
-14 -85 -2 0 -10 -61 -12 -97 -1 -16 -6 -28 -10 -28 -5 0 -6 -4 -3 -10 3 -5
-2 -10 -12 -10 -13 0 -22 13 -31 43 -7 23 -19 56 -26 72 -33 73 -46 107 -46
120 0 8 -5 15 -11 15 -5 0 -8 4 -5 8 3 5 -1 20 -8 34 -18 34 -41 101 -38 111
1 4 -3 7 -8 7 -6 0 -10 6 -10 13 0 12 -48 142 -75 202 -7 17 -16 41 -20 55 -4
14 -12 30 -17 37 -5 7 -7 17 -3 23 3 5 2 10 -2 10 -7 0 -45 90 -47 110 -1 3
-9 26 -20 50 -22 54 -42 105 -51 130 -1 3 -5 13 -8 23 -4 9 -10 25 -14 35 -3
9 -5 20 -5 25 1 4 -2 7 -8 7 -5 0 -10 5 -10 12 0 20 -82 233 -92 236 -4 2 -6
7 -3 12 3 4 -6 33 -20 64 -14 31 -22 56 -19 56 4 0 2 6 -4 13 -6 6 -22 44 -36
82 -15 39 -30 79 -35 90 -5 11 -19 47 -31 80 -12 33 -26 70 -31 83 -22 55 -32
78 -38 92 -4 8 -14 36 -22 63 -7 26 -17 47 -21 47 -4 0 -7 3 -6 8 0 4 -2 16
-6 27 -5 11 -10 27 -14 35 -3 8 -6 17 -7 20 -1 3 -9 22 -18 44 -9 21 -17 43
-17 48 0 6 -7 24 -15 41 -7 18 -32 77 -53 132 -21 55 -43 109 -47 120 -4 11
-9 25 -10 30 -5 21 -58 150 -65 158 -7 7 -1312 15 -1562 9z"/>
<path d="M16373 15632 c-89 -2 -103 -5 -104 -20 0 -9 -2 -24 -4 -32 -1 -8 -6
-33 -9 -55 -3 -22 -13 -74 -20 -115 -8 -41 -18 -93 -22 -115 -4 -22 -8 -44 -9
-50 -1 -5 -3 -12 -4 -15 -1 -3 -4 -18 -6 -35 -8 -64 -14 -101 -19 -125 -4 -14
-8 -42 -11 -64 -3 -21 -7 -41 -9 -45 -2 -3 -7 -28 -10 -56 -4 -27 -9 -57 -11
-65 -2 -8 -7 -28 -9 -45 -3 -16 -12 -70 -21 -120 -9 -49 -18 -105 -21 -124 -3
-18 -8 -43 -10 -55 -2 -11 -7 -34 -10 -51 -2 -16 -7 -43 -11 -60 -3 -16 -7
-41 -8 -55 -2 -14 -4 -25 -5 -25 -1 0 -3 -9 -5 -20 -5 -34 -26 -159 -30 -180
-2 -11 -6 -29 -8 -40 -3 -11 -8 -42 -11 -68 -4 -27 -9 -59 -12 -70 -5 -27 -35
-186 -39 -207 -1 -8 -6 -37 -9 -63 -4 -27 -10 -59 -12 -70 -3 -12 -6 -36 -8
-53 -2 -17 -6 -36 -10 -43 -4 -6 -4 -15 -1 -21 3 -5 2 -10 -2 -10 -5 0 -8 -12
-8 -27 1 -16 -2 -35 -7 -45 -4 -9 -9 -37 -10 -62 -2 -25 -5 -46 -9 -46 -3 0
-6 -19 -8 -42 -1 -23 -4 -45 -6 -49 -3 -3 -7 -24 -10 -45 -4 -22 -8 -46 -10
-54 -3 -8 -7 -33 -10 -55 -5 -37 -15 -96 -20 -120 -2 -5 -6 -28 -9 -50 -4 -22
-9 -53 -12 -70 -4 -16 -8 -41 -9 -55 -2 -14 -4 -25 -5 -25 -3 0 -10 -41 -12
-77 -2 -21 -5 -38 -8 -38 -3 0 -6 -8 -7 -17 -2 -27 -11 -88 -13 -88 -1 0 -3
-12 -5 -26 -5 -41 -13 -89 -25 -149 -6 -30 -13 -68 -15 -85 -3 -16 -8 -43 -11
-58 -3 -16 -7 -38 -9 -50 -1 -12 -8 -53 -15 -92 -7 -38 -14 -80 -14 -92 -1
-13 -4 -23 -8 -23 -5 0 -7 -3 -6 -7 2 -7 -10 -99 -17 -133 -6 -30 -14 -76 -20
-114 -4 -21 -9 -48 -11 -60 -3 -11 -7 -34 -9 -51 -3 -16 -7 -41 -10 -55 -9
-46 -37 -205 -38 -222 -1 -10 -5 -18 -9 -18 -4 0 -5 -6 -2 -13 3 -8 0 -34 -6
-58 -6 -24 -12 -59 -12 -76 -1 -18 -4 -33 -7 -33 -3 0 -6 -10 -7 -22 -1 -32
-20 -153 -24 -153 -2 0 -7 -24 -14 -72 -3 -21 -7 -47 -10 -58 -2 -11 -7 -40
-11 -65 -4 -25 -9 -54 -11 -65 -2 -11 -9 -49 -15 -84 -5 -36 -12 -69 -16 -74
-3 -5 -6 -28 -8 -53 l-3 -44 1818 0 1818 0 7 23 c3 12 8 33 10 47 9 63 13 85
15 85 0 0 3 18 6 40 6 55 9 68 15 80 4 6 6 22 5 38 -1 15 1 27 4 27 3 0 7 10
7 23 2 33 13 97 23 134 4 18 7 44 6 58 -2 14 0 25 4 25 4 0 12 35 19 78 17
108 19 121 26 172 4 25 11 54 15 65 4 11 6 28 5 38 -2 9 0 17 3 17 4 0 8 15 8
33 1 17 5 46 8 62 17 79 25 138 21 145 -3 5 -1 11 5 15 5 3 8 19 6 35 -2 16 1
27 5 24 5 -3 9 7 10 23 0 15 3 42 6 58 14 72 11 80 -30 82 -21 0 -41 3 -44 6
-3 3 -16 2 -29 -3 -16 -6 -24 -6 -24 1 0 6 -6 6 -18 0 -13 -7 -22 -7 -29 0 -8
8 -13 7 -17 0 -5 -8 -13 -8 -27 -1 -12 7 -19 7 -19 1 0 -7 -8 -7 -22 -2 -13 5
-33 5 -45 0 -14 -5 -23 -5 -23 2 0 6 -6 6 -18 0 -13 -7 -22 -7 -29 0 -8 8 -13
7 -17 0 -5 -8 -13 -8 -27 -1 -12 7 -19 7 -19 1 0 -7 -8 -7 -22 -2 -13 5 -32 5
-43 1 -11 -4 -28 -3 -37 2 -10 5 -18 5 -18 0 0 -4 -9 -8 -20 -8 -11 0 -20 4
-20 8 0 5 -8 4 -19 -1 -10 -6 -21 -7 -25 -4 -10 10 -46 11 -46 2 0 -5 -10 -5
-22 0 -13 5 -33 5 -45 0 -14 -5 -23 -5 -23 2 0 6 -6 6 -18 0 -11 -6 -24 -6
-35 0 -11 7 -17 7 -17 0 0 -7 -8 -7 -22 -2 -13 5 -33 5 -45 0 -14 -5 -23 -5
-23 2 0 6 -7 6 -17 1 -18 -9 -71 -7 -80 2 -3 3 -15 1 -28 -4 -14 -5 -26 -5
-33 2 -6 6 -12 6 -16 -1 -5 -8 -13 -8 -27 -1 -12 7 -19 7 -19 1 0 -7 -8 -7
-22 -2 -13 5 -33 5 -45 0 -14 -5 -23 -5 -23 2 0 6 -7 6 -17 2 -21 -10 -65 -9
-82 1 -6 4 -11 3 -11 -3 0 -7 -8 -7 -22 -2 -13 5 -33 5 -45 0 -14 -5 -23 -5
-23 2 0 6 -7 6 -19 -1 -14 -7 -22 -7 -26 0 -4 6 -11 7 -18 3 -16 -10 -57 -10
-57 0 0 4 -8 3 -19 -2 -10 -6 -21 -7 -25 -4 -10 11 -36 12 -36 2 0 -5 -10 -5
-22 0 -13 5 -33 5 -45 0 -14 -5 -23 -5 -23 2 0 6 -6 6 -18 0 -11 -6 -24 -6
-35 0 -11 7 -17 7 -17 0 0 -7 -8 -7 -22 -2 -13 5 -33 5 -45 0 -14 -5 -23 -5
-23 1 0 5 -8 6 -17 3 -21 -8 -63 -8 -84 1 -15 7 -23 36 -9 36 4 0 7 6 7 13 0
13 9 75 18 120 3 15 7 37 9 50 2 12 7 38 11 57 3 19 8 49 10 65 2 17 4 30 5
30 1 0 3 9 4 20 2 11 7 40 11 65 4 25 8 50 9 57 1 7 6 16 10 20 4 4 391 9 859
10 469 1 857 2 864 2 6 1 12 9 11 19 0 9 3 28 7 42 3 14 8 41 10 60 4 33 7 52
21 110 3 14 7 43 10 65 2 22 13 84 23 137 11 53 22 112 24 130 3 18 6 33 7 33
1 0 3 11 5 25 1 14 6 41 10 60 4 19 8 49 10 65 2 17 4 30 5 30 1 0 3 11 6 25
5 30 13 72 21 120 4 19 7 47 7 63 1 15 4 27 8 27 4 0 6 8 6 18 -1 15 5 51 26
158 26 133 25 160 -4 144 -15 -8 -20 -8 -20 1 0 8 -4 8 -15 -1 -8 -6 -20 -8
-27 -4 -17 11 -48 13 -48 3 0 -9 -20 -7 -37 4 -6 4 -14 1 -16 -5 -4 -9 -6 -9
-6 -1 -1 8 -10 9 -31 3 -17 -5 -32 -5 -35 0 -3 5 -16 6 -28 2 -27 -10 -38 -9
-56 2 -9 6 -16 6 -18 0 -3 -10 -60 -11 -69 -1 -3 3 -18 2 -33 -3 -16 -4 -34
-4 -41 0 -7 4 -25 4 -40 0 -15 -4 -33 -4 -40 0 -7 4 -25 4 -40 0 -15 -4 -33
-4 -40 0 -7 5 -24 4 -37 -1 -15 -6 -23 -5 -23 2 0 8 -5 7 -15 -1 -9 -7 -15 -8
-15 -2 0 6 -13 7 -35 2 -21 -5 -35 -4 -35 2 0 5 -6 6 -12 2 -16 -10 -50 -10
-67 0 -7 5 -16 5 -20 0 -7 -11 -41 -11 -59 -1 -7 5 -12 3 -12 -4 0 -8 -4 -9
-13 0 -10 8 -17 7 -25 -1 -9 -9 -12 -9 -12 1 0 11 -3 11 -15 1 -9 -7 -15 -8
-15 -2 0 6 -13 7 -35 2 -22 -5 -35 -4 -35 2 0 7 -4 7 -13 0 -7 -6 -19 -7 -26
-3 -7 5 -28 5 -47 1 -20 -5 -34 -4 -34 2 0 5 -5 6 -11 3 -17 -11 -59 -13 -65
-3 -4 6 -10 5 -15 -3 -7 -12 -9 -12 -9 0 0 11 -3 11 -15 1 -9 -7 -15 -8 -15
-2 0 6 -13 7 -35 2 -22 -5 -35 -4 -35 2 0 6 -5 7 -12 2 -12 -8 -33 -10 -48 -4
-15 6 -50 6 -50 0 0 -4 -7 -7 -15 -7 -8 0 -15 5 -15 10 0 5 -7 4 -15 -3 -9 -7
-15 -8 -15 -2 0 6 -13 7 -34 2 -45 -10 -60 0 -52 36 3 16 8 45 11 64 3 19 8
42 10 50 2 8 7 35 10 60 7 53 13 85 15 85 3 0 11 59 12 88 0 15 3 27 7 27 4 0
8 10 8 23 3 52 8 67 23 68 96 5 1520 2 1520 -3 0 -4 7 -5 16 -1 8 3 70 7 137
8 145 2 136 1 132 23 -1 9 0 21 3 26 3 5 7 23 8 40 4 33 11 71 14 71 2 0 3 6
15 90 4 28 11 69 16 93 5 23 12 59 15 80 11 76 15 97 19 112 2 8 7 31 9 50 7
44 16 97 22 130 3 14 7 36 9 50 2 14 4 25 5 25 1 0 4 14 5 30 2 17 6 41 9 55
4 14 8 41 11 60 3 19 7 46 11 60 3 14 7 39 9 55 1 17 4 30 5 30 1 0 4 11 5 26
2 14 13 74 24 135 28 153 32 184 23 184 -57 2 -3246 4 -3319 2z"/>
<path d="M17797 10013 c-2 -1 -36 -4 -77 -6 -41 -3 -83 -8 -92 -12 -11 -4 -18
-3 -18 5 0 6 -5 8 -12 3 -7 -4 -21 -8 -30 -9 -10 -1 -19 -2 -20 -3 -2 -2 -19
-4 -39 -6 -20 -1 -49 -5 -65 -9 -16 -3 -42 -8 -59 -11 -41 -7 -59 -11 -140
-30 -38 -9 -77 -18 -85 -20 -8 -2 -16 -4 -17 -5 -2 -2 -7 -4 -13 -5 -5 -1 -12
-4 -15 -5 -7 -4 -15 -5 -57 -14 -21 -5 -38 -12 -38 -17 0 -5 -3 -8 -7 -8 -5 1
-10 0 -13 -1 -3 -1 -14 -3 -25 -5 -10 -2 -28 -8 -40 -14 -11 -5 -60 -26 -110
-46 -49 -21 -93 -41 -96 -47 -3 -5 -10 -10 -15 -10 -15 0 -92 -37 -99 -48 -4
-6 -11 -8 -16 -5 -5 4 -9 2 -9 -3 0 -5 -18 -17 -40 -27 -22 -10 -47 -26 -56
-36 -10 -11 -21 -19 -26 -19 -9 0 -83 -51 -118 -82 -9 -7 -38 -31 -65 -53 -63
-49 -225 -212 -225 -224 0 -5 -4 -11 -8 -13 -5 -1 -31 -32 -58 -68 -27 -36
-52 -67 -56 -68 -5 -2 -6 -8 -2 -13 3 -5 0 -9 -5 -9 -6 0 -11 -5 -11 -12 0 -6
-11 -26 -26 -45 -14 -18 -21 -33 -17 -33 4 0 3 -4 -2 -8 -11 -8 -75 -135 -95
-192 -8 -19 -16 -39 -20 -45 -7 -10 -47 -139 -57 -180 -22 -100 -24 -110 -39
-205 -10 -66 -12 -365 -3 -440 12 -93 49 -259 60 -266 4 -2 6 -11 2 -19 -3 -8
0 -15 7 -15 7 0 10 -7 6 -15 -3 -8 0 -15 6 -15 6 0 9 -3 5 -6 -12 -12 103
-213 168 -294 30 -38 174 -178 210 -205 22 -17 49 -38 59 -47 11 -10 26 -18
33 -18 7 0 13 -5 13 -12 0 -6 3 -9 6 -6 3 3 17 -5 31 -18 14 -13 29 -21 34
-18 5 3 9 1 9 -4 0 -5 18 -17 40 -27 22 -10 40 -22 40 -27 0 -4 9 -8 20 -8 11
0 20 -5 20 -12 0 -6 3 -9 6 -5 3 3 27 -5 52 -18 26 -13 54 -25 62 -27 8 -2 18
-7 21 -11 3 -5 12 -9 20 -11 8 -1 30 -9 49 -18 66 -29 95 -41 105 -44 6 -2 30
-10 55 -19 25 -9 52 -18 60 -21 8 -3 16 -5 18 -4 1 0 15 -6 31 -14 15 -8 39
-17 52 -19 13 -2 31 -7 39 -10 35 -15 166 -59 178 -59 6 -1 12 -6 12 -11 0 -5
7 -7 15 -3 8 3 15 0 15 -6 0 -6 3 -8 7 -5 3 4 15 0 25 -10 10 -9 18 -13 18 -9
0 11 183 -86 201 -106 9 -10 21 -18 28 -18 6 0 11 -8 11 -17 0 -9 3 -14 6 -10
7 7 54 -46 54 -61 0 -5 7 -15 15 -22 8 -7 12 -16 9 -22 -3 -5 0 -15 6 -23 7
-8 10 -21 7 -29 -3 -8 -1 -17 6 -20 9 -3 8 -8 -3 -15 -11 -8 -12 -11 -2 -11 8
0 10 -5 6 -12 -4 -6 -8 -25 -9 -42 -3 -49 -74 -156 -103 -156 -6 0 -13 -7 -16
-16 -4 -9 -9 -14 -13 -10 -3 3 -13 0 -22 -8 -15 -13 -122 -53 -166 -62 -43 -9
-112 -17 -161 -18 -27 -2 -56 -6 -62 -10 -7 -4 -12 -4 -12 1 0 4 -28 9 -63 9
-34 1 -75 4 -92 7 -16 3 -48 8 -70 12 -62 11 -265 74 -317 99 -26 13 -44 18
-41 12 4 -6 0 -5 -8 1 -9 7 -49 29 -90 50 -41 20 -75 40 -77 45 -2 4 -10 8
-18 8 -8 0 -14 5 -14 10 0 6 -5 10 -10 10 -20 0 -95 59 -177 138 -24 23 -46
42 -48 42 -3 0 -20 -15 -38 -32 -19 -18 -71 -67 -117 -108 -45 -41 -109 -101
-141 -132 -32 -32 -64 -58 -69 -58 -6 0 -8 -4 -5 -10 3 -5 2 -10 -4 -10 -6 0
-35 -24 -66 -52 -30 -29 -91 -87 -136 -128 -123 -114 -159 -147 -221 -206 -32
-30 -59 -54 -61 -54 -2 0 -38 -33 -80 -72 -41 -40 -110 -104 -152 -143 l-76
-70 49 -45 c54 -49 116 -100 141 -114 9 -5 22 -16 29 -23 8 -7 27 -20 43 -28
16 -9 29 -20 29 -25 0 -6 9 -10 19 -10 11 0 21 -3 23 -8 4 -9 111 -73 156 -93
17 -7 32 -18 32 -22 0 -5 5 -5 10 -2 6 3 10 2 10 -3 0 -9 47 -27 63 -24 4 1 7
-2 7 -7 0 -7 59 -36 82 -40 5 -1 23 -10 41 -20 18 -10 48 -22 65 -26 18 -3 32
-11 32 -16 0 -5 3 -8 8 -8 16 3 72 -14 72 -22 0 -5 3 -8 8 -7 6 1 41 -8 102
-27 3 -1 12 -4 20 -8 23 -9 152 -45 180 -51 14 -2 38 -9 53 -15 15 -6 31 -10
35 -9 4 1 14 -2 22 -5 8 -3 31 -8 50 -11 19 -3 52 -9 73 -14 20 -6 37 -8 37
-6 0 3 10 0 21 -7 16 -8 20 -8 14 1 -5 9 -3 9 11 2 11 -5 42 -13 69 -16 28 -4
64 -9 80 -12 152 -22 270 -29 495 -29 179 0 316 7 400 19 8 2 40 7 70 11 30 5
63 10 73 11 9 1 18 2 20 3 4 4 60 13 85 14 12 0 22 4 22 8 0 4 8 6 18 4 9 -1
22 0 27 4 6 3 18 6 28 7 9 1 18 2 20 4 3 2 35 10 62 15 11 2 65 18 120 35 55
18 117 37 137 44 20 6 40 15 44 19 4 4 16 7 26 7 10 0 18 5 18 12 0 6 3 9 6 5
4 -3 24 3 45 13 21 11 45 20 53 20 8 0 16 3 18 8 2 4 40 25 85 47 46 22 83 43
83 46 0 4 11 10 25 13 14 4 25 11 25 17 0 6 5 7 10 4 6 -3 10 -2 10 3 0 5 20
19 45 32 24 13 52 31 61 41 10 11 23 19 29 19 7 0 16 7 19 16 4 9 9 15 12 12
5 -5 34 19 109 88 24 23 46 39 49 36 3 -3 6 -1 6 4 0 6 27 38 60 72 33 35 60
67 60 72 0 5 12 18 26 29 15 12 24 21 20 21 -4 0 0 7 9 16 15 15 86 115 112
159 32 53 112 226 127 275 10 30 20 62 23 70 9 23 14 43 37 160 40 205 36 528
-8 685 -1 6 -8 30 -15 55 -7 25 -15 54 -17 64 -2 11 -9 23 -16 27 -7 4 -9 11
-5 15 4 4 -7 31 -23 61 -17 29 -28 53 -25 53 3 0 -6 17 -20 37 -14 21 -25 41
-25 46 0 8 -48 76 -61 87 -3 3 -8 10 -10 16 -13 36 -184 212 -253 262 -20 14
-36 29 -36 34 0 4 -6 8 -14 8 -8 0 -16 4 -18 8 -3 9 -102 78 -106 74 -1 -1
-12 7 -24 18 -12 11 -27 20 -34 20 -6 0 -17 7 -24 15 -7 8 -16 12 -21 9 -5 -3
-9 -2 -9 3 0 4 -33 24 -73 43 -39 19 -75 40 -79 45 -4 6 -8 7 -8 3 0 -4 -17 1
-37 11 -60 31 -133 62 -203 88 -36 13 -74 28 -85 32 -50 22 -105 40 -105 35 0
-4 -6 -2 -12 4 -7 6 -15 10 -18 10 -3 1 -18 5 -33 11 -16 6 -34 11 -42 11 -8
0 -16 4 -19 9 -4 5 -24 12 -46 16 -22 4 -42 11 -46 16 -3 5 -10 7 -15 4 -5 -4
-9 -1 -9 4 0 6 -8 11 -18 11 -10 0 -22 3 -26 7 -3 4 -12 8 -20 9 -36 5 -195
94 -233 131 -68 65 -91 152 -69 266 4 24 11 35 18 31 7 -4 8 -3 4 4 -15 25 62
113 130 147 22 11 42 24 45 28 3 5 8 8 10 7 2 -1 18 4 34 10 17 7 40 13 52 13
13 1 23 6 23 10 0 5 10 7 23 6 12 -1 31 2 42 7 34 14 365 10 365 -5 0 -3 14
-6 31 -7 77 -3 295 -92 360 -147 11 -10 23 -17 28 -17 5 0 16 -6 23 -13 7 -6
41 -38 75 -71 l62 -58 91 89 c51 48 141 135 200 193 60 58 184 177 275 265 91
88 212 205 269 260 57 55 138 133 180 174 83 79 81 74 29 127 -13 13 -23 22
-23 20 0 -2 -17 12 -37 31 -45 42 -247 176 -270 179 -9 2 -19 6 -22 11 -10 14
-71 45 -71 36 0 -4 -4 -3 -8 2 -6 10 -112 65 -124 65 -3 0 -27 10 -54 22 -27
12 -53 23 -59 24 -5 1 -40 13 -77 27 -38 15 -68 24 -68 20 0 -3 -6 -1 -12 4
-14 11 -220 69 -278 78 -19 3 -51 10 -70 15 -19 5 -55 12 -80 15 -65 10 -64
10 -79 19 -11 7 -12 6 -6 -5 7 -11 6 -12 -6 -3 -8 6 -26 11 -41 10 -16 -1 -28
1 -28 4 0 3 -18 5 -40 4 -22 0 -40 2 -40 6 0 4 -16 6 -35 5 -20 -2 -51 1 -70
5 -21 5 -35 4 -35 -2 0 -5 -6 -6 -12 -1 -11 7 -335 13 -341 6z"/>
<path d="M1810 9875 c0 -6 -31 -9 -79 -8 -84 3 -89 0 -96 -52 -6 -45 -15 -97
-23 -132 -5 -21 -8 -48 -7 -60 1 -13 -2 -23 -6 -23 -4 0 -6 -8 -4 -17 1 -10 0
-22 -3 -28 -4 -5 -7 -19 -8 -30 -2 -11 -5 -32 -8 -46 -3 -14 -7 -42 -8 -62 -2
-20 -6 -37 -9 -37 -4 0 -6 -16 -5 -35 1 -19 -1 -35 -5 -35 -3 0 -9 -21 -12
-47 -4 -27 -9 -59 -11 -73 -3 -13 -8 -41 -11 -62 -3 -20 -12 -69 -19 -107 -8
-39 -11 -73 -8 -76 3 -3 1 -5 -4 -5 -5 0 -10 -10 -10 -22 -2 -29 -12 -103 -14
-103 -3 0 -10 -37 -14 -75 -2 -19 -5 -35 -6 -35 -1 0 -3 -11 -5 -25 -4 -36
-16 -103 -20 -120 -2 -8 -7 -31 -10 -50 -3 -19 -10 -61 -16 -92 -5 -32 -12
-70 -15 -85 -4 -30 -16 -91 -19 -108 -4 -15 -15 -85 -22 -130 -3 -22 -8 -42
-12 -45 -3 -3 -7 -21 -7 -40 -1 -19 -5 -51 -9 -70 -4 -19 -9 -46 -10 -60 -2
-14 -4 -26 -5 -27 -1 -2 -4 -12 -5 -23 -1 -11 -4 -21 -5 -22 -1 -2 -3 -19 -5
-38 -2 -19 -4 -35 -5 -35 -2 0 -17 -75 -24 -130 -5 -36 -21 -127 -31 -175 -2
-14 -7 -38 -10 -55 -2 -16 -9 -55 -15 -85 -13 -65 -21 -114 -24 -144 -1 -12
-5 -26 -7 -31 -6 -11 -10 -49 -13 -102 0 -17 -4 -29 -8 -26 -5 2 -8 -11 -9
-29 0 -18 -2 -40 -4 -48 -11 -44 -16 -68 -20 -97 -2 -18 -9 -58 -15 -90 -5
-32 -12 -71 -15 -88 -3 -16 -8 -41 -10 -55 -3 -14 -8 -42 -11 -64 -3 -21 -8
-48 -11 -60 -2 -11 -6 -32 -8 -46 -2 -14 -9 -52 -15 -85 -6 -33 -13 -71 -15
-85 -2 -14 -4 -25 -5 -25 -2 0 -10 -49 -14 -90 -2 -16 -6 -37 -9 -45 -3 -8 -9
-37 -13 -65 -4 -27 -9 -57 -10 -65 -2 -8 -8 -42 -13 -75 -6 -33 -14 -73 -17
-90 -10 -53 -17 -99 -17 -122 -1 -13 -4 -23 -8 -23 -4 0 -6 -11 -4 -25 1 -14
-1 -28 -5 -30 -4 -2 -6 -16 -5 -30 2 -14 0 -25 -5 -25 -4 0 -7 -13 -6 -30 1
-16 -1 -30 -5 -30 -4 0 -7 -8 -7 -17 1 -10 -2 -36 -6 -58 -4 -22 -10 -53 -12
-70 -12 -87 -59 -341 -64 -345 -3 -3 -5 -16 -4 -30 0 -14 -5 -43 -11 -65 -6
-22 -10 -50 -9 -62 1 -13 -2 -23 -5 -23 -3 0 -7 -15 -8 -32 -6 -68 -7 -78 -13
-78 -3 0 -5 -14 -5 -31 l1 -31 749 0 c413 0 795 1 850 1 l101 1 2 26 c1 15 7
33 13 40 7 8 7 14 2 14 -6 0 -5 20 3 50 7 28 16 71 18 96 3 25 8 49 11 54 3 4
7 28 10 51 3 24 14 89 25 144 10 55 22 123 25 150 4 28 10 51 15 53 4 1 5 14
2 27 -2 14 0 25 4 25 5 0 9 18 8 40 0 22 2 40 6 40 3 0 6 10 7 23 0 12 4 40 8
62 5 22 8 48 9 58 0 9 3 17 6 17 3 0 6 8 6 18 1 24 9 76 38 232 14 74 28 149
30 165 3 17 10 53 16 80 6 28 12 64 15 80 2 17 6 40 9 51 2 12 7 38 10 59 4
20 8 41 11 45 2 4 136 7 297 7 282 0 580 9 624 17 22 4 160 17 202 19 12 1 22
3 22 7 0 3 15 5 33 6 17 0 50 4 72 8 22 4 48 7 58 7 9 0 17 4 17 8 0 4 12 7
28 6 15 -1 32 1 37 4 6 3 21 7 35 9 14 2 43 8 65 14 22 6 45 12 50 13 6 1 17
4 25 8 8 3 26 8 40 10 14 2 38 9 53 15 15 7 40 14 55 18 15 3 36 10 47 15 38
17 135 50 141 49 4 -1 10 2 13 7 6 9 19 15 124 62 26 12 47 26 47 31 0 6 3 9
8 8 11 -3 82 35 82 44 0 4 4 8 10 8 24 0 149 94 242 183 28 26 54 47 59 47 5
0 9 3 9 8 0 4 22 32 49 61 28 30 48 59 45 63 -3 4 -1 8 5 8 5 0 29 29 53 65
23 36 46 65 51 65 4 0 6 4 2 9 -3 5 2 17 11 25 8 9 12 16 7 16 -4 0 1 7 11 15
11 8 16 15 12 15 -4 0 2 17 13 38 30 54 71 152 71 168 0 8 5 14 11 14 6 0 9 6
6 13 -2 6 2 24 10 40 7 15 11 27 7 27 -4 0 -1 7 6 15 7 9 10 18 7 22 -4 3 -1
15 5 27 6 11 12 32 14 46 1 14 3 25 4 25 1 0 3 11 6 25 2 14 9 49 15 78 41
200 45 572 9 747 -6 28 -12 61 -15 75 -12 63 -53 188 -68 208 -5 6 -7 12 -4
12 14 0 -98 211 -115 218 -4 2 -8 9 -8 16 0 7 -9 21 -20 31 -11 10 -20 21 -20
26 0 17 -161 185 -234 244 -20 17 -42 29 -49 27 -7 -2 -9 0 -5 3 11 11 -187
144 -220 149 -7 1 -18 8 -24 14 -7 7 -15 12 -19 12 -4 0 -33 12 -65 27 -33 15
-63 28 -69 29 -5 1 -23 8 -40 15 -16 7 -36 11 -42 10 -7 -1 -13 3 -13 9 0 5
-8 10 -17 10 -10 0 -45 10 -78 21 -33 11 -73 22 -89 25 -16 3 -32 6 -35 8 -3
2 -22 7 -41 10 -19 3 -46 8 -60 11 -14 2 -36 7 -50 10 -34 6 -74 12 -140 20
-30 4 -68 9 -85 12 -75 11 -206 14 -712 16 -354 1 -543 5 -543 12 0 7 -3 7 -8
0 -4 -5 -38 -10 -77 -10 -38 0 -73 5 -77 10 -5 7 -8 7 -8 0 0 -6 -138 -10
-392 -10 -251 0 -396 4 -400 10 -5 7 -8 7 -8 0z m1780 -1360 c63 -11 174 -47
220 -70 94 -48 148 -125 166 -240 12 -73 9 -151 -9 -230 -7 -28 -43 -105 -49
-105 -5 0 -8 -4 -8 -10 0 -22 -138 -135 -165 -135 -5 0 -16 -5 -22 -12 -12
-10 -123 -48 -168 -57 -105 -20 -211 -28 -385 -30 l-205 -1 2 40 c1 22 4 51 8
65 3 14 6 37 7 53 1 15 4 27 7 27 3 0 7 10 8 23 2 29 11 91 13 95 2 1 4 11 5
22 1 11 4 21 5 23 1 1 3 16 5 32 1 17 3 30 5 30 1 0 3 9 4 20 5 34 16 96 32
185 9 47 18 96 20 110 6 36 24 131 30 158 l4 22 218 -4 c119 -3 233 -8 252
-11z"/>
<path d="M10930 9875 c0 -6 -91 -10 -252 -10 l-253 0 1 -22 c0 -12 -3 -20 -8
-17 -4 3 -8 -5 -9 -18 0 -13 -2 -32 -4 -43 -2 -11 -6 -38 -9 -60 -3 -22 -8
-51 -11 -65 -3 -14 -8 -47 -11 -75 -4 -27 -9 -54 -12 -59 -3 -6 -6 -19 -7 -30
-2 -23 -12 -87 -25 -156 -5 -24 -6 -48 -4 -52 3 -5 1 -8 -3 -8 -5 0 -9 -10
-10 -22 0 -13 -4 -41 -7 -63 -4 -22 -9 -51 -11 -65 -1 -14 -4 -26 -5 -27 -1
-2 -3 -11 -4 -20 -1 -10 -5 -36 -9 -58 -4 -22 -10 -53 -12 -70 -2 -16 -6 -41
-9 -55 -6 -29 -33 -188 -42 -244 -3 -21 -8 -48 -10 -60 -3 -11 -7 -39 -10 -60
-2 -22 -9 -45 -15 -53 -9 -9 -8 -13 0 -13 8 0 9 -6 3 -17 -5 -10 -7 -24 -5
-30 3 -7 1 -13 -4 -13 -4 0 -8 -12 -9 -27 -1 -28 -11 -96 -19 -123 -2 -8 -6
-35 -9 -60 -3 -25 -9 -56 -12 -70 -9 -42 -12 -63 -19 -114 -3 -27 -8 -52 -10
-56 -2 -3 -6 -24 -9 -46 -3 -21 -7 -50 -10 -64 -3 -14 -8 -43 -11 -65 -4 -22
-9 -53 -11 -70 -3 -16 -7 -40 -10 -52 -2 -13 -6 -33 -8 -45 -8 -41 -18 -103
-20 -123 -1 -11 -4 -24 -7 -30 -3 -5 -5 -22 -4 -37 0 -16 -2 -28 -5 -28 -3 0
-7 -10 -8 -22 -4 -62 -10 -106 -14 -114 -3 -5 -9 -34 -14 -64 -4 -30 -8 -57
-9 -60 0 -3 -4 -26 -8 -51 -4 -25 -10 -59 -14 -75 -3 -16 -7 -40 -8 -54 -2
-14 -4 -25 -5 -25 -1 0 -3 -9 -4 -20 -2 -11 -6 -38 -10 -60 -6 -34 -10 -61
-19 -120 -1 -5 -6 -13 -12 -17 -6 -5 -5 -8 3 -8 7 0 10 -5 6 -12 -4 -6 -8 -21
-10 -32 -1 -12 -5 -39 -8 -61 -4 -22 -9 -65 -11 -96 -3 -30 -8 -66 -10 -80
-20 -99 -24 -489 -5 -489 3 0 5 -12 6 -27 2 -55 8 -103 14 -103 3 0 7 -14 8
-32 2 -17 7 -36 11 -42 5 -6 10 -14 10 -19 4 -46 67 -203 108 -269 13 -21 23
-42 23 -48 0 -5 5 -10 11 -10 5 0 8 -4 5 -9 -4 -5 -3 -11 1 -13 5 -1 23 -25
42 -53 19 -27 42 -58 50 -67 32 -35 40 -46 34 -52 -4 -3 1 -6 10 -6 9 0 17 -4
17 -9 0 -11 100 -111 111 -111 5 0 9 -7 9 -17 0 -9 3 -14 6 -10 3 3 14 -2 24
-11 25 -24 59 -50 103 -79 20 -14 37 -30 37 -36 0 -6 3 -7 7 -4 3 4 21 -4 39
-18 18 -14 37 -25 43 -25 6 0 11 -4 11 -10 0 -5 9 -10 20 -10 11 0 20 -4 20
-8 0 -5 38 -26 85 -47 47 -22 85 -43 85 -48 0 -4 4 -6 9 -2 6 3 25 -3 44 -14
19 -11 45 -21 58 -23 13 -2 26 -6 29 -10 3 -4 15 -9 25 -11 11 -1 25 -6 31 -9
13 -9 155 -50 239 -69 77 -18 90 -20 108 -22 9 -1 17 -4 17 -8 0 -3 12 -6 28
-7 15 0 29 -1 32 -2 3 -1 14 -4 25 -5 11 -1 38 -5 60 -9 22 -4 64 -9 93 -11
30 -3 57 -7 61 -9 37 -23 725 -24 851 -1 14 3 126 17 163 21 9 1 18 2 20 4 3
2 29 7 75 14 47 6 91 15 112 23 8 3 29 7 45 9 17 2 37 7 45 11 8 3 23 8 33 10
38 7 183 56 195 66 6 5 12 7 12 3 0 -4 14 0 30 9 17 9 30 13 30 10 0 -3 12 3
27 12 15 10 29 17 30 15 2 -2 29 9 61 24 31 14 73 33 92 42 19 9 37 19 40 22
7 8 54 27 63 26 5 0 13 7 18 17 6 9 15 17 20 17 14 0 153 90 157 101 2 5 10 9
17 9 8 0 18 6 22 13 4 6 26 25 48 42 86 63 339 315 317 315 -3 0 3 9 14 20 43
43 134 178 134 199 0 8 3 12 6 8 8 -7 144 254 144 276 0 8 4 17 8 19 10 4 92
222 92 243 0 8 5 15 11 15 5 0 8 4 5 9 -4 5 -1 22 5 38 7 15 13 34 15 42 1 7
8 34 14 60 6 25 11 51 11 56 0 6 5 16 11 23 6 6 8 12 5 12 -3 0 -2 14 3 32 5
17 12 49 16 72 3 22 7 43 9 46 2 3 6 26 10 50 3 25 10 68 15 95 5 28 12 68 16
90 3 22 8 49 10 60 1 11 5 34 8 50 3 17 7 41 10 55 3 13 7 39 8 57 1 18 5 33
8 33 4 0 7 12 7 28 2 27 6 54 18 122 4 19 8 48 10 64 3 15 6 35 9 45 3 9 8 34
11 56 3 23 8 52 10 65 3 14 8 43 11 65 3 22 10 60 15 85 13 63 20 110 21 143
1 15 5 27 8 27 6 0 9 26 11 93 1 15 4 27 8 27 4 0 7 10 7 23 1 20 5 48 17 102
2 11 8 42 11 68 4 27 9 59 12 70 2 12 9 51 15 87 18 118 25 158 34 200 7 33
13 66 20 120 8 50 13 75 15 75 2 0 9 45 14 90 2 22 5 40 6 40 1 0 3 11 5 25 2
14 6 36 9 50 2 14 7 41 10 60 3 19 8 46 11 60 3 14 7 39 9 55 4 31 32 190 41
235 8 39 18 113 19 133 0 9 3 17 6 17 3 0 7 10 7 23 2 28 10 82 19 127 4 19 8
47 8 63 1 15 3 27 6 27 3 0 6 8 6 18 1 9 4 35 8 57 3 22 11 67 17 100 5 33 12
72 15 87 l5 26 -155 -1 c-99 -1 -156 2 -156 8 0 7 -3 7 -8 0 -4 -5 -38 -10
-77 -10 -38 0 -73 5 -77 10 -5 7 -8 7 -8 0 0 -6 -138 -10 -395 -10 -257 0
-395 4 -395 10 0 7 -3 7 -8 0 -4 -5 -38 -10 -77 -10 -38 0 -73 5 -77 10 -5 7
-8 7 -8 0 0 -6 -42 -9 -109 -8 -126 2 -123 4 -136 -112 -2 -16 -4 -30 -5 -30
-2 0 -8 -25 -15 -70 -7 -46 -22 -128 -29 -165 -3 -13 -8 -42 -11 -65 -3 -22
-8 -48 -11 -58 -8 -26 -14 -66 -16 -99 -1 -16 -5 -28 -9 -28 -4 0 -6 -7 -5
-16 1 -8 -3 -43 -10 -76 -7 -34 -11 -65 -8 -70 3 -4 2 -8 -3 -8 -4 0 -9 -15
-11 -33 -2 -33 -9 -72 -12 -72 -1 0 -3 -11 -5 -25 -6 -45 -15 -95 -20 -120
-10 -49 -34 -176 -40 -218 -2 -15 -7 -38 -10 -52 -3 -14 -6 -37 -7 -52 -1 -16
-4 -28 -7 -28 -4 0 -6 -12 -6 -27 1 -16 -1 -32 -4 -38 -3 -5 -6 -18 -7 -27 -1
-10 -3 -19 -4 -20 -1 -2 -4 -14 -6 -28 -2 -14 -5 -36 -8 -50 -9 -47 -18 -103
-21 -129 -2 -14 -4 -26 -5 -26 -1 0 -4 -11 -6 -25 -2 -14 -11 -61 -19 -105 -8
-44 -17 -96 -20 -115 -3 -19 -8 -42 -10 -50 -2 -8 -7 -33 -10 -55 -9 -50 -13
-73 -19 -105 -3 -14 -7 -41 -10 -60 -3 -19 -8 -46 -12 -60 -8 -34 -14 -69 -18
-105 -2 -16 -6 -37 -10 -45 -3 -8 -8 -33 -10 -55 -3 -22 -5 -40 -6 -40 -2 0
-9 -34 -14 -75 -3 -19 -7 -45 -10 -56 -2 -12 -7 -37 -10 -55 -3 -19 -10 -59
-16 -89 -6 -30 -13 -71 -16 -90 -3 -19 -7 -42 -9 -50 -3 -8 -7 -33 -11 -55 -7
-45 -8 -50 -18 -85 -4 -14 -8 -36 -10 -50 -2 -14 -6 -32 -9 -40 -3 -8 -18 -58
-32 -110 -32 -113 -89 -235 -140 -298 -29 -37 -115 -125 -115 -118 0 3 -12 -6
-26 -19 -15 -14 -33 -25 -40 -25 -8 0 -14 -4 -14 -9 0 -5 -16 -15 -35 -22 -19
-7 -35 -17 -35 -23 0 -5 -3 -7 -6 -3 -3 3 -30 -3 -59 -13 -29 -10 -68 -20 -87
-21 -18 -2 -37 -5 -43 -8 -5 -3 -48 -6 -95 -7 -47 -1 -87 -3 -90 -4 -3 -1 -9
-1 -15 0 -10 2 -31 5 -102 11 -18 2 -33 6 -33 9 0 3 -13 5 -28 6 -39 1 -161
49 -197 77 -73 55 -126 120 -167 202 -35 69 -46 106 -66 210 -16 81 -4 334 18
403 1 4 2 10 1 14 0 4 4 19 9 33 7 19 7 24 -1 19 -8 -4 -8 -1 -1 13 6 10 13
39 17 63 3 25 8 52 11 61 3 10 6 30 9 45 5 40 14 90 26 153 6 30 12 64 14 75
4 26 15 91 21 120 2 11 7 37 10 56 6 41 15 91 30 165 4 17 7 42 8 58 0 15 4
27 7 27 4 0 6 12 7 28 0 15 1 29 2 32 1 3 3 16 6 30 2 14 11 61 20 105 15 80
20 109 28 166 3 17 7 42 10 57 3 15 8 43 11 62 3 19 8 42 10 50 7 25 17 94 18
118 1 12 4 22 8 22 3 0 5 11 4 25 -2 14 0 25 4 25 4 0 6 12 6 28 -1 15 1 32 4
37 3 6 7 19 8 30 2 11 6 34 8 50 3 17 8 44 10 60 2 17 7 41 10 55 4 22 13 69
30 165 3 17 7 44 10 60 3 17 10 53 15 80 6 28 11 62 12 78 1 15 5 27 8 27 3 0
5 12 6 28 1 25 4 44 18 113 3 14 8 41 10 60 3 19 5 34 6 34 1 0 4 16 7 35 2
19 10 60 17 91 7 31 12 68 11 83 0 14 2 26 6 26 3 0 6 6 6 13 0 10 17 118 29
180 3 16 -7 17 -107 15 -68 -2 -109 1 -109 7 0 7 -3 7 -8 0 -4 -6 -149 -10
-400 -10 -254 0 -392 4 -392 10 0 7 -3 7 -8 0 -4 -5 -38 -10 -77 -10 -38 0
-73 5 -77 10 -5 7 -8 7 -8 0z"/>
</g>
</svg>
